HIERARCHY
ROOT root
{
	OFFSET	0	13.1	24.9
	CHANNELS 6  Xposition Yposition Zposition Xrotation Yrotation Zrotation
	JOINT spine_1
	{
		OFFSET	0	9.99999	0
		CHANNELS 3  Xrotation Yrotation Zrotation
		JOINT spine_2
		{
			OFFSET	0	112	-10
			CHANNELS 3  Xrotation Yrotation Zrotation
			JOINT spine_3
			{
				OFFSET	0	206.5	19.3
				CHANNELS 3  Xrotation Yrotation Zrotation
				JOINT spine_4
				{
					OFFSET	0	110.4	14.6
					CHANNELS 3  Xrotation Yrotation Zrotation
					JOINT neck_1
					{
						OFFSET	0	71.8	-50.3
						CHANNELS 3  Xrotation Yrotation Zrotation
						JOINT neck_2
						{
							OFFSET	0	86.2	-25.8
							CHANNELS 3  Xrotation Yrotation Zrotation
							JOINT head_ee
							{
								OFFSET	0	179.8	-8.7
								CHANNELS 3  Xrotation Yrotation Zrotation
								End Site
								{
									OFFSET	1	0	0
								}
							}
						}
					}
					JOINT left_clavicle
					{
						OFFSET	-43.2	22.4	-70.8
						CHANNELS 3  Xrotation Yrotation Zrotation
						JOINT left_shoulder
						{
							OFFSET	-93.9	-5.79999	48.7
							CHANNELS 3  Xrotation Yrotation Zrotation
							JOINT left_elbow
							{
								OFFSET	-291.4	-30.8	15.2
								CHANNELS 3  Xrotation Yrotation Zrotation
								JOINT left_lowarm_twist
								{
									OFFSET	-110.7	-3.89999	13.6
									CHANNELS 3  Xrotation Yrotation Zrotation
									JOINT left_hand
									{
										OFFSET	-110.7	-3.89999	13.6
										CHANNELS 3  Xrotation Yrotation Zrotation
										JOINT left_ee
										{
											OFFSET	-80.8	-5.10001	12.1
											CHANNELS 3  Xrotation Yrotation Zrotation
											End Site
											{
												OFFSET	1	0	0
											}
										}
									}
								}
							}
						}
					}
					JOINT right_clavicle
					{
						OFFSET	43.2	22.4	-70.8
						CHANNELS 3  Xrotation Yrotation Zrotation
						JOINT right_shoulder
						{
							OFFSET	93.9	-5.79999	48.7
							CHANNELS 3  Xrotation Yrotation Zrotation
							JOINT right_elbow
							{
								OFFSET	291.4	-30.8	15.2
								CHANNELS 3  Xrotation Yrotation Zrotation
								JOINT right_lowarm_twist
								{
									OFFSET	110.7	-3.89999	13.6
									CHANNELS 3  Xrotation Yrotation Zrotation
									JOINT right_hand
									{
										OFFSET	110.7	-3.89999	13.6
										CHANNELS 3  Xrotation Yrotation Zrotation
										JOINT right_ee
										{
											OFFSET	80.8	-5.10001	12.1
											CHANNELS 3  Xrotation Yrotation Zrotation
											End Site
											{
												OFFSET	1	0	0
											}
										}
									}
								}
							}
						}
					}
				}
			}
		}
	}
	JOINT left_hip
	{
		OFFSET	-82.8	-127.5	0.300001
		CHANNELS 3  Xrotation Yrotation Zrotation
		JOINT left_knee
		{
			OFFSET	-28.2	-396.7	2.2
			CHANNELS 3  Xrotation Yrotation Zrotation
			JOINT left_ankle
			{
				OFFSET	-11.7	-411.3	35.4
				CHANNELS 3  Xrotation Yrotation Zrotation
				JOINT left_toes
				{
					OFFSET	0	-60	-88.6
					CHANNELS 3  Xrotation Yrotation Zrotation
					JOINT left_foot_ee
					{
						OFFSET	-22.5	-16.5	-42.2
						CHANNELS 3  Xrotation Yrotation Zrotation
						End Site
						{
							OFFSET	1	0	0
						}
					}
				}
			}
		}
	}
	JOINT right_hip
	{
		OFFSET	82.8	-127.5	0.300001
		CHANNELS 3  Xrotation Yrotation Zrotation
		JOINT right_knee
		{
			OFFSET	28.2	-396.7	2.2
			CHANNELS 3  Xrotation Yrotation Zrotation
			JOINT right_ankle
			{
				OFFSET	11.7	-411.3	35.4
				CHANNELS 3  Xrotation Yrotation Zrotation
				JOINT right_toes
				{
					OFFSET	0	-60	-88.6
					CHANNELS 3  Xrotation Yrotation Zrotation
					JOINT right_foot_ee
					{
						OFFSET	22.5	-16.5	-42.2
						CHANNELS 3  Xrotation Yrotation Zrotation
						End Site
						{
							OFFSET	1	0	0
						}
					}
				}
			}
		}
	}
}
MOTION
Frames: 8
Frame Time: 0.02
1142.75709341 726.522 -1764.29525004 -2.53025314795 24.6185546589 -6.16806950946 -0.740771 0.564649 2.0484 -0.738541 0.433189 2.08016 -0.720841 -0.0403342 2.12439 -0.727017 0.295603 2.10411 2.82844 13.9755 2.61769 3.30341 22.2264 3.8336 -0.0 0.0 -0.0 3.93961 19.9805 8.13946 -11.5743 -16.8807 64.2057 0.621668 -17.1167 0.0935568 10.5297 0.250321 -1.31989 0.551263 -3.20027 2.35313 -0.0 0.0 -0.0 13.9731 27.2244 -27.7832 7.47745 5.94795 -58.7258 0.842046 22.642 -0.168582 35.6278 0.141597 4.47654 -0.856059 -5.73988 3.20676 0.0 0.0 0.0 18.4971 16.1394 -0.0910748 -89.9224 -6.13052 10.8547 35.5084 -32.2152 -5.61116 31.9179 -0.0 -0.0 -0.0 0.0 -0.0 16.8001 20.5277 1.73602 -25.6574 -0.185756 -3.90019 14.5573 7.71914 2.1089 31.5895 -0.0 -0.0 0.0 0.0 0.0 
1122.27277776 732.0 -1804.78343766 -6.08475934431 27.1322111034 -3.12189964643 0.432952 0.60107 1.38848 0.433879 0.511509 1.4239 0.447241 0.21262 1.49796 0.444387 0.446502 1.4456 2.70604 12.3998 -0.0651312 3.18941 21.7515 0.758848 -0.0 0.0 -0.0 3.58766 20.2808 7.61983 -13.4948 -19.0332 62.0047 0.548983 -15.2138 0.0733179 14.0342 0.279368 -1.76652 0.873104 -2.68292 4.73612 -0.0 0.0 -0.0 14.1264 26.783 -28.1997 8.5427 7.47568 -56.5844 1.10946 28.792 -0.284787 38.883 0.29244 4.86439 1.31628 4.58327 -6.94272 0.0 0.0 0.0 39.2091 7.20047 -1.24261 -93.5416 -6.67231 10.9888 35.2356 -28.2249 -5.31018 27.716 -0.0 -0.0 -0.0 0.0 -0.0 12.7008 16.1809 1.88181 -15.7849 -0.322017 -2.39332 20.9416 17.0496 3.11711 27.3308 -0.0 -0.0 0.0 0.0 0.0 
1125.66568823 732.0 -1807.32764988 -6.05332310224 26.5479080587 -3.19152473128 0.432952 0.60107 1.38848 0.433879 0.511509 1.4239 0.447241 0.21262 1.49796 0.444387 0.446502 1.4456 2.70604 12.3998 -0.0651312 3.18941 21.7515 0.758848 -0.0 0.0 -0.0 3.58766 20.2808 7.61983 -13.4948 -19.0332 62.0047 0.548983 -15.2138 0.0733179 14.0342 0.279368 -1.76652 0.873104 -2.68292 4.73612 -0.0 0.0 -0.0 14.1264 26.783 -28.1997 8.5427 7.47568 -56.5844 1.10946 28.792 -0.284787 38.883 0.29244 4.86439 1.31628 4.58327 -6.94272 0.0 0.0 0.0 39.2091 7.20047 -1.24261 -93.5416 -6.67231 10.9888 35.2356 -28.2249 -5.31018 27.716 -0.0 -0.0 -0.0 0.0 -0.0 12.7008 16.1809 1.88181 -15.7849 -0.322017 -2.39332 20.9416 17.0496 3.11711 27.3308 -0.0 -0.0 0.0 0.0 0.0 
1105.95452698 720.39 -1810.19455088 -7.75995725231 30.3854371516 -1.67872819726 0.861728 0.569357 1.29816 0.862535 0.485605 1.33175 0.874268 0.216349 1.4009 0.871793 0.434861 1.34917 2.30908 11.5292 -0.772616 2.75049 20.8784 -0.0232242 -0.0 0.0 -0.0 3.21551 20.7321 7.08063 -15.1607 -19.5405 61.8231 0.536928 -14.8948 0.070187 14.2902 0.280418 -1.79919 0.981825 -2.64129 5.48669 -0.0 0.0 -0.0 13.883 26.6218 -27.6515 9.98365 8.16319 -55.5312 1.19701 30.6653 -0.328209 39.985 0.348481 4.9937 1.85094 7.2441 -9.46262 0.0 0.0 0.0 45.4081 3.46208 -3.23948 -94.3727 -6.79779 11.0148 36.7978 -28.0648 -5.46623 25.6016 -0.0 -0.0 -0.0 0.0 -0.0 11.7523 15.4771 1.96914 -14.8372 -0.321399 -2.24791 23.4509 17.7235 3.46001 27.1448 -0.0 -0.0 0.0 0.0 0.0 
1092.67641641 715.721 -1815.59741672 -8.26911746822 32.4276130872 -0.806827979618 1.1552 0.559691 1.36562 1.15612 0.471667 1.39846 1.16801 0.197159 1.46262 1.16528 0.425656 1.41314 2.03665 10.9222 -1.27896 2.45263 20.2711 -0.584814 -0.0 0.0 -0.0 2.86116 21.1936 6.5776 -16.5776 -19.7814 61.6733 0.525175 -14.5828 0.0671967 14.4774 0.281094 -1.82309 1.05788 -2.59488 6.01939 -0.0 0.0 -0.0 13.4696 26.3868 -26.7184 10.8134 8.52543 -54.4745 1.25999 31.9694 -0.360944 40.7455 0.388606 5.08232 2.22872 9.09923 -11.252 0.0 0.0 0.0 49.6419 0.938997 -4.11195 -94.5855 -6.82997 11.0211 37.8436 -27.9313 -5.56491 24.1076 -0.0 -0.0 -0.0 0.0 -0.0 11.0608 14.921 1.48929 -14.1658 -0.319506 -2.14492 25.2226 18.1881 3.69623 27.014 -0.0 -0.0 0.0 0.0 0.0 
1053.64262753 710.979 -1856.21849853 -8.1114866526 33.4344522046 1.60589272993 1.53782 0.452703 0.731838 1.53802 0.405218 0.75916 1.5435 0.258841 0.820683 1.54277 0.385201 0.769509 1.14143 8.98556 -2.11677 1.44759 17.6461 -1.52158 -0.0 0.0 -0.0 2.20343 22.9063 5.70939 -23.1866 -18.5785 62.9386 0.421844 -11.8034 0.0436063 14.8165 0.282119 -1.8664 1.22704 -2.6082 7.15785 -0.0 0.0 -0.0 13.2137 26.0897 -26.1608 12.0346 9.82539 -52.1259 1.36518 34.0675 -0.418275 41.6697 0.438948 5.18928 2.83289 11.9781 -14.134 0.0 0.0 0.0 57.0415 2.30389 -6.32901 -80.3751 -4.75109 10.3392 33.9906 -27.5169 -5.13103 20.5755 -0.0 -0.0 -0.0 0.0 -0.0 8.86192 11.2192 -1.84072 -13.8737 -0.318306 -2.10011 29.6838 17.8144 4.21604 26.8823 -0.0 -0.0 0.0 0.0 0.0 
1036.85493696 709.738 -1871.09726206 -8.72718073834 31.8789186007 3.05505081768 2.07088 0.368649 0.250685 2.07085 0.35195 0.273636 2.07256 0.298745 0.330903 2.07257 0.347256 0.279569 0.848424 8.22521 -2.1001 1.10373 16.3101 -1.52654 -0.0 0.0 -0.0 2.42913 23.2667 6.03758 -24.92 -17.8021 63.7551 0.352334 -9.90064 0.0305175 15.0139 0.282598 -1.8916 1.28791 -2.39059 7.65986 -0.0 0.0 -0.0 12.9483 26.4402 -25.5053 11.9428 9.7364 -53.5929 1.39812 34.7041 -0.436881 41.4576 0.427242 5.1648 2.97588 12.9458 -14.6767 0.0 0.0 0.0 57.7642 2.30788 -7.83351 -71.9695 -3.62121 9.70137 32.6648 -27.3306 -4.97047 19.9643 -0.0 -0.0 -0.0 0.0 -0.0 7.75368 9.20531 -2.04004 -13.6833 -0.317401 -2.07092 31.3392 17.1015 4.37807 27.1249 -0.0 -0.0 0.0 0.0 0.0 
1029.56880947 711.26 -1884.02729171 -9.77301296687 30.7743109607 4.60173210881 2.47927 0.327887 0.105099 2.47922 0.320535 0.12575 2.47994 0.294913 0.177714 2.48004 0.319278 0.128908 0.520394 7.76833 -1.95016 0.738163 15.4011 -1.3616 -0.0 0.0 -0.0 2.79769 23.5827 6.55621 -26.2366 -17.1377 64.5957 0.289134 -8.15114 0.0206015 15.1791 0.282932 -1.91269 1.32472 -2.21067 7.98338 -0.0 0.0 -0.0 12.7229 26.7836 -24.9446 11.8748 9.7717 -54.6045 1.42907 35.2933 -0.45463 41.3394 0.420757 5.15114 3.08047 13.6174 -15.0864 0.0 0.0 0.0 56.207 2.1119 -9.19156 -65.2328 -2.79074 9.07565 31.7329 -27.2887 -4.85999 19.54 -0.0 -0.0 -0.0 0.0 -0.0 7.41682 7.07494 -2.4605 -12.6998 -0.31118 -1.92014 32.5485 16.3047 4.48325 27.2652 -0.0 -0.0 0.0 0.0 0.0 
